HIERARCHY
ROOT hip
{
  OFFSET 47.8615 78.0283 2.74043
  CHANNELS 6 Xposition Yposition Zposition Zrotation Xrotation Yrotation
  JOINT abdomen
  {
    OFFSET 0 20.6881 -0.73152
    CHANNELS 3 Zrotation Xrotation Yrotation
    JOINT chest
    {
      OFFSET 0 11.7043 -0.48768
      CHANNELS 3 Zrotation Xrotation Yrotation
      JOINT neck
      {
        OFFSET 0 22.1894 -2.19456
        CHANNELS 3 Zrotation Xrotation Yrotation
        JOINT head
        {
          OFFSET -0.24384 7.07133 1.2192
          CHANNELS 3 Zrotation Xrotation Yrotation
          JOINT leftEye
          {
            OFFSET 4.14528 8.04674 8.04672
            CHANNELS 3 Zrotation Xrotation Yrotation
            End Site
            {
              OFFSET 1 0 0
            }
          }
          JOINT rightEye
          {
            OFFSET -3.6576 8.04674 8.04672
            CHANNELS 3 Zrotation Xrotation Yrotation
            End Site
            {
              OFFSET 1 0 0
            }
          }
        }
      }
      JOINT rCollar
      {
        OFFSET -2.68224 19.2634 -4.8768
        CHANNELS 3 Zrotation Xrotation Yrotation
        JOINT rShldr
        {
          OFFSET -8.77824 -1.95073 1.46304
          CHANNELS 3 Zrotation Xrotation Yrotation
          JOINT rForeArm
          {
            OFFSET -28.1742 -1.7115 0.48768
            CHANNELS 3 Zrotation Xrotation Yrotation
            JOINT rHand
            {
              OFFSET -22.5879 0.773209 7.07136
              CHANNELS 3 Zrotation Xrotation Yrotation
              JOINT rThumb1
              {
                OFFSET -1.2192 -0.487915 3.41376
                CHANNELS 3 Zrotation Xrotation Yrotation
                JOINT rThumb2
                {
                  OFFSET -3.37035 -0.52449 3.41376
                  CHANNELS 3 Zrotation Xrotation Yrotation
                  End Site
                  {
                    OFFSET -1.78271 -1.18214 1.43049
                  }
                }
              }
              JOINT rIndex1
              {
                OFFSET -7.75947 0.938293 5.60832
                CHANNELS 3 Zrotation Xrotation Yrotation
                JOINT rIndex2
                {
                  OFFSET -2.54057 -0.884171 1.56538
                  CHANNELS 3 Zrotation Xrotation Yrotation
                  End Site
                  {
                    OFFSET -1.62519 -0.234802 1.16502
                  }
                }
              }
              JOINT rMid1
              {
                OFFSET -8.24714 1.18213 3.41376
                CHANNELS 3 Zrotation Xrotation Yrotation
                JOINT rMid2
                {
                  OFFSET -3.10165 -0.590103 1.0647
                  CHANNELS 3 Zrotation Xrotation Yrotation
                  End Site
                  {
                    OFFSET -2.48547 -0.328903 0.83742
                  }
                }
              }
              JOINT rRing1
              {
                OFFSET -8.82822 0.546677 1.51678
                CHANNELS 3 Zrotation Xrotation Yrotation
                JOINT rRing2
                {
                  OFFSET -2.60934 -0.819778 -0.0198488
                  CHANNELS 3 Zrotation Xrotation Yrotation
                  End Site
                  {
                    OFFSET -2.33842 -0.294052 0.168128
                  }
                }
              }
              JOINT rPinky1
              {
                OFFSET -8.27202 -0.0477905 -0.4584
                CHANNELS 3 Zrotation Xrotation Yrotation
                JOINT rPinky2
                {
                  OFFSET -1.82734 -0.647385 -0.700984
                  CHANNELS 3 Zrotation Xrotation Yrotation
                  End Site
                  {
                    OFFSET -1.69225 -0.51767 -0.607171
                  }
                }
              }
            }
          }
        }
      }
      JOINT lCollar
      {
        OFFSET 2.68224 19.2634 -4.8768
        CHANNELS 3 Zrotation Xrotation Yrotation
        JOINT lShldr
        {
          OFFSET 8.77824 -1.95073 1.46304
          CHANNELS 3 Zrotation Xrotation Yrotation
          JOINT lForeArm
          {
            OFFSET 28.1742 -1.7115 0.48768
            CHANNELS 3 Zrotation Xrotation Yrotation
            JOINT lHand
            {
              OFFSET 22.5879 0.773209 7.07136
              CHANNELS 3 Zrotation Xrotation Yrotation
              JOINT lThumb1
              {
                OFFSET 1.2192 -0.487915 3.41376
                CHANNELS 3 Zrotation Xrotation Yrotation
                JOINT lThumb2
                {
                  OFFSET 3.37035 -0.52449 3.41376
                  CHANNELS 3 Zrotation Xrotation Yrotation
                  End Site
                  {
                    OFFSET 1.78271 -1.18214 1.43049
                  }
                }
              }
              JOINT lIndex1
              {
                OFFSET 7.75947 0.938293 5.60832
                CHANNELS 3 Zrotation Xrotation Yrotation
                JOINT lIndex2
                {
                  OFFSET 2.54057 -0.884171 1.56538
                  CHANNELS 3 Zrotation Xrotation Yrotation
                  End Site
                  {
                    OFFSET 1.62519 -0.234802 1.16502
                  }
                }
              }
              JOINT lMid1
              {
                OFFSET 8.24714 1.18213 3.41376
                CHANNELS 3 Zrotation Xrotation Yrotation
                JOINT lMid2
                {
                  OFFSET 3.10165 -0.590103 1.0647
                  CHANNELS 3 Zrotation Xrotation Yrotation
                  End Site
                  {
                    OFFSET 2.48547 -0.328903 0.83742
                  }
                }
              }
              JOINT lRing1
              {
                OFFSET 8.82822 0.546677 1.51678
                CHANNELS 3 Zrotation Xrotation Yrotation
                JOINT lRing2
                {
                  OFFSET 2.60934 -0.819778 -0.0198488
                  CHANNELS 3 Zrotation Xrotation Yrotation
                  End Site
                  {
                    OFFSET 2.33842 -0.294052 0.168128
                  }
                }
              }
              JOINT lPinky1
              {
                OFFSET 8.27202 -0.0477905 -0.4584
                CHANNELS 3 Zrotation Xrotation Yrotation
                JOINT lPinky2
                {
                  OFFSET 1.82734 -0.647385 -0.700984
                  CHANNELS 3 Zrotation Xrotation Yrotation
                  End Site
                  {
                    OFFSET 1.69225 -0.51767 -0.607171
                  }
                }
              }
            }
          }
        }
      }
    }
  }
  JOINT rButtock
  {
    OFFSET -8.77824 4.35084 1.2192
    CHANNELS 3 Zrotation Xrotation Yrotation
    JOINT rThigh
    {
      OFFSET 0 -1.70687 -2.19456
      CHANNELS 3 Zrotation Xrotation Yrotation
      JOINT rShin
      {
        OFFSET 0 -36.8199 0.73152
        CHANNELS 3 Zrotation Xrotation Yrotation
        JOINT rFoot
        {
          OFFSET 0.73152 -45.1104 -5.12064
          CHANNELS 3 Zrotation Xrotation Yrotation
          End Site
          {
            OFFSET -1.1221 -3.69964 12.103
          }
        }
      }
    }
  }
  JOINT lButtock
  {
    OFFSET 8.77824 4.35084 1.2192
    CHANNELS 3 Zrotation Xrotation Yrotation
    JOINT lThigh
    {
      OFFSET 0 -1.70687 -2.19456
      CHANNELS 3 Zrotation Xrotation Yrotation
      JOINT lShin
      {
        OFFSET 0 -36.8199 0.73152
        CHANNELS 3 Zrotation Xrotation Yrotation
        JOINT lFoot
        {
          OFFSET -0.73152 -45.1104 -5.12064
          CHANNELS 3 Zrotation Xrotation Yrotation
          End Site
          {
            OFFSET 1.1221 -3.69964 12.103
          }
        }
      }
    }
  }
}
MOTION
Frames:	5
Frame Time:	0.00833333
38.5848 78.0822 11.4153 -1.46717 0.00515126 0.0277557 1.92989 -0.00172173 0.0523828 0.532084 0.00507129 0.0921229 4.65067e-014 -2.38542e-015 4.74353e-023 1.40125e-013 -6.36111e-015 -1.72384e-016 -0 0 0 -0 0 0 2.32569e-014 -5.84318e-017 1.98785e-016 4.93524e-013 -1.26104e-015 2.78299e-015 8.46669e-012 -2.56989e-012 -6.36111e-014 9.6797e-011 2.30257e-012 1.62208e-013 2.28355e-010 -5.81836e-013 2.00375e-013 3.94351e-010 -1.00824e-012 3.37934e-013 2.28361e-010 -5.79656e-013 1.90833e-013 7.73091 5.47488 0.417314 2.28354e-010 -5.81743e-013 2.03556e-013 2.90554 0.965183 0.102902 2.28365e-010 -5.81644e-013 2.0276e-013 10.2786 0.731801 0.0259123 2.28351e-010 -5.81246e-013 2.09917e-013 2.22167 -0.733487 -0.20892 2.32602e-014 -5.84318e-017 -1.49089e-016 4.8876e-013 -1.54679e-015 9.93923e-016 8.44755e-012 2.48878e-012 -8.90555e-014 9.68123e-011 -2.77807e-012 1.90833e-013 2.28349e-010 -6.24791e-013 2.00375e-013 3.9436e-010 -1.07821e-012 3.44295e-013 2.28342e-010 -6.21401e-013 2.09917e-013 -7.73091 5.47488 -0.417314 2.28348e-010 -6.24681e-013 1.94014e-013 -2.90554 0.965183 -0.102902 2.28341e-010 -6.24681e-013 1.9958e-013 -10.2786 0.731801 -0.0259123 2.28355e-010 -6.24581e-013 1.94014e-013 -2.22167 -0.733487 0.20892 -2.03217e-016 0 -3.88251e-019 1.95925 -7.26119 -0.192003 0.00412221 7.58533 0.107077 -0.521045 -0.330689 0.0523009 2.03217e-016 0 3.88251e-019 0.976454 -1.92613 0.000873584 0.0089888 -2.0786 0.0740773 0.488111 3.99809 -0.136772 
47.8484 78.1611 2.37851 9.33693 10.7743 24.6216 0.653772 5.81326 0.863644 0.79857 -0.574042 0.385075 0.589438 -2.35431 0.180975 0.176957 4.1518 0.320419 -0 0 0 -0 0 0 4.95477e-014 1.43207e-012 3.3378e-015 4.42591 1.6284 16.8957 -6.88332 -3.93605 9.72875 0.000871523 -0.655608 -0.0921179 1.22318e-009 3.23218e-011 8.72899e-011 2.11298e-009 5.40126e-011 1.49972e-010 1.22318e-009 3.23242e-011 8.72794e-011 7.73091 5.47488 0.417314 1.22318e-009 3.23226e-011 8.72922e-011 2.90554 0.965183 0.102902 1.22319e-009 3.2323e-011 8.72912e-011 10.2786 0.731801 0.0259123 1.22317e-009 3.23234e-011 8.72976e-011 2.22167 -0.733487 -0.20892 4.95494e-014 1.43266e-012 3.00351e-015 -2.95164 1.97181 -17.1701 6.72814 -3.80447 -9.57074 -0.000525643 0.51512 -0.0723853 -1.02279e-009 -3.09365e-010 -1.52379e-010 -1.76781e-009 -5.37632e-010 -2.58452e-010 -1.0228e-009 -3.09365e-010 -1.52371e-010 -7.73091 5.47488 -0.417314 -1.02279e-009 -3.09366e-010 -1.52384e-010 -2.90554 0.965183 -0.102902 -1.0228e-009 -3.09366e-010 -1.52378e-010 -10.2786 0.731801 -0.0259123 -1.02278e-009 -3.09365e-010 -1.52382e-010 -2.22167 -0.733487 0.20892 -2.03217e-016 0 -3.88251e-019 -3.49696 -8.19023 -2.50478 0.00240019 20.5814 0.308331 -0.707046 -7.53252 -1.45165 2.03217e-016 0 3.88251e-019 5.13563 -2.75011 3.40527 -0.0221357 12.4484 -0.135429 0.426971 -3.92072 -0.167041 
47.8639 78.1741 2.4226 11.8333 15.4831 52.2822 -0.879291 11.957 1.75011 1.08774 -1.18406 0.694851 1.23227 -4.84714 0.37363 0.305706 8.54592 0.664796 -0 0 0 -0 0 0 7.93192e-014 3.02634e-012 6.85496e-015 8.1202 2.87412 34.7933 -12.7248 -7.71775 20.1559 -0.000504036 -1.35232 -0.190052 2.39276e-009 6.76268e-011 1.86231e-010 4.13353e-009 1.12876e-010 3.19916e-010 2.39277e-009 6.76296e-011 1.86219e-010 7.73091 5.47488 0.417314 2.39276e-009 6.76284e-011 1.86232e-010 2.90554 0.965183 0.102902 2.39277e-009 6.76291e-011 1.86231e-010 10.2786 0.731801 0.0259123 2.39276e-009 6.76295e-011 1.86237e-010 2.22167 -0.733487 -0.20892 7.93319e-014 3.02793e-012 6.53505e-015 -4.86413 3.46246 -35.3753 12.477 -7.47277 -19.8212 0.000337884 1.05023 -0.147599 -2.48085e-009 -6.6128e-010 -3.36316e-010 -4.28761e-009 -1.1493e-009 -5.70583e-010 -2.48086e-009 -6.61283e-010 -3.36309e-010 -7.73091 5.47488 -0.417314 -2.48085e-009 -6.61282e-010 -3.36318e-010 -2.90554 0.965183 -0.102902 -2.48085e-009 -6.61282e-010 -3.36312e-010 -10.2786 0.731801 -0.0259123 -2.48084e-009 -6.61279e-010 -3.36314e-010 -2.22167 -0.733487 0.20892 -2.03217e-016 0 -3.88251e-019 -9.34981 -9.15359 -4.96233 -0.120135 34.3178 0.583088 -1.32765 -15.1288 -3.12341 2.03217e-016 0 3.88251e-019 9.63621 -3.60404 7.00935 0.0724986 27.8034 -0.396142 0.35373 -12.2902 -0.200427 
47.881 78.1908 2.44111 11.4611 10.0894 75.5319 -2.41282 17.4284 2.59191 1.34932 -1.73206 0.971366 1.81322 -7.06266 0.546616 0.38871 12.4538 0.981839 -0 0 0 -0 0 0 1.02129e-013 4.29632e-012 9.61582e-015 10.8083 3.23348 50.7776 -16.7779 -10.4477 29.6562 -0.00371294 -1.9668 -0.276498 3.21282e-009 9.81291e-011 2.61469e-010 5.55024e-009 1.64054e-010 4.49239e-010 3.21282e-009 9.8132e-011 2.61457e-010 7.73091 5.47488 0.417314 3.21282e-009 9.81313e-011 2.6147e-010 2.90554 0.965183 0.102902 3.21283e-009 9.81322e-011 2.61468e-010 10.2786 0.731801 0.0259123 3.21282e-009 9.81326e-011 2.61473e-010 2.22167 -0.733487 -0.20892 1.02128e-013 4.29811e-012 9.30871e-015 -5.83112 3.85127 -51.642 16.4997 -10.141 -29.1463 0.00232897 1.54535 -0.217226 -3.52507e-009 -9.26847e-010 -4.57539e-010 -6.09216e-009 -1.61074e-009 -7.76045e-010 -3.52508e-009 -9.26852e-010 -4.57533e-010 -7.73091 5.47488 -0.417314 -3.52507e-009 -9.26849e-010 -4.5754e-010 -2.90554 0.965183 -0.102902 -3.52507e-009 -9.26849e-010 -4.57533e-010 -10.2786 0.731801 -0.0259123 -3.52507e-009 -9.26845e-010 -4.57534e-010 -2.22167 -0.733487 0.20892 -2.03217e-016 0 -3.88251e-019 -14.6368 -9.99434 -7.16603 -0.394709 46.5703 0.95087 -2.2866 -21.8747 -4.76579 2.03217e-016 0 3.88251e-019 13.7464 -4.34274 10.232 0.315426 41.5003 -0.727413 0.276463 -19.7582 -0.241277 
47.9008 78.2025 2.4128 12.7404 1.16872 88.7445 -3.5773 21.2329 3.22197 1.52945 -2.12519 1.16437 2.20746 -8.58523 0.666873 0.459036 15.1477 1.21084 -0 0 0 -0 0 0 1.07535e-013 4.75558e-012 1.04859e-014 12.5326 2.94748 61.9004 -19.0371 -11.8468 36.3904 -0.00692725 -2.37574 -0.334082 3.15905e-009 1.16625e-010 2.77449e-010 5.45737e-009 1.96018e-010 4.77009e-010 3.15906e-009 1.16627e-010 2.77437e-010 7.73091 5.47488 0.417314 3.15905e-009 1.16627e-010 2.77449e-010 2.90554 0.965183 0.102902 3.15906e-009 1.16628e-010 2.77448e-010 10.2786 0.731801 0.0259123 3.15905e-009 1.16629e-010 2.77453e-010 2.22167 -0.733487 -0.20892 1.07458e-013 4.75558e-012 1.01877e-014 -6.32912 3.45223 -62.9501 18.7578 -11.5254 -35.7434 0.0046206 1.94052 -0.272828 -3.53469e-009 -9.76544e-010 -4.2198e-010 -6.10858e-009 -1.69663e-009 -7.14834e-010 -3.5347e-009 -9.76551e-010 -4.21974e-010 -7.73091 5.47488 -0.417314 -3.53469e-009 -9.76547e-010 -4.2198e-010 -2.90554 0.965183 -0.102902 -3.5347e-009 -9.76547e-010 -4.21973e-010 -10.2786 0.731801 -0.0259123 -3.53469e-009 -9.76542e-010 -4.21974e-010 -2.22167 -0.733487 0.20892 -2.03217e-016 0 -3.88251e-019 -18.349 -10.5712 -8.70836 -0.753089 55.1154 1.35281 -3.21567 -26.5525 -6.04593 2.03217e-016 0 3.88251e-019 16.6752 -4.84096 12.4864 0.636776 51.0539 -1.08139 0.206051 -24.9727 -0.290617 
